# This file uses centimeters as units for non-parametric coordinates.

mtllib QuadPerron.mtl
g default
v 1.000000 -1.000000 0.000000
v -1.000000 -1.000000 -0.000000
v 1.000000 1.000000 0.000000
v -1.000000 1.000000 -0.000000
vt 0.000000 0.000000
vt 0.000000 1.000000
vt 1.000000 0.000000
vt 1.000000 1.000000
vt 1.000000 0.000000
vt 0.000000 1.000000
vn -0.000000 0.000000 1.000000
vn -0.000000 0.000000 1.000000
vn -0.000000 0.000000 1.000000
vn -0.000000 0.000000 1.000000
vn -0.000000 0.000000 1.000000
vn -0.000000 0.000000 1.000000
s off
g pPlane1
usemtl QuadPerron_initialShadingGroup
f 1/1/1 3/2/2 2/5/3
f 3/6/4 4/4/5 2/3/6
